<mxfile host="app.diagrams.net" modified="2021-05-25T08:46:02.803Z" agent="5.0 (Windows NT 10.0; Win64; x64) AppleWebKit/537.36 (KHTML, like Gecko) Chrome/90.0.4430.212 Safari/537.36" etag="nOfGbKt36aNHdWZ9Ogbz" version="14.7.0" type="github">
  <diagram id="wpUjuaXlfRGGNPFPo0AE" name="Overview">
    <mxGraphModel dx="1039" dy="654" grid="1" gridSize="10" guides="1" tooltips="1" connect="1" arrows="1" fold="1" page="1" pageScale="1" pageWidth="827" pageHeight="1169" math="0" shadow="0">
      <root>
        <mxCell id="0" />
        <mxCell id="1" parent="0" />
        <mxCell id="b1I_690l7l1dpyekks1_-55" value="" style="rounded=0;whiteSpace=wrap;html=1;fillColor=#f9f7ed;strokeColor=#36393d;" vertex="1" parent="1">
          <mxGeometry x="33" y="90" width="807" height="950" as="geometry" />
        </mxCell>
        <mxCell id="b1I_690l7l1dpyekks1_-34" value="" style="rounded=0;whiteSpace=wrap;html=1;gradientColor=#b3b3b3;fillColor=#f5f5f5;strokeColor=#666666;" vertex="1" parent="1">
          <mxGeometry x="573.5" y="580" width="230" height="145" as="geometry" />
        </mxCell>
        <mxCell id="b1I_690l7l1dpyekks1_-33" value="" style="rounded=0;whiteSpace=wrap;html=1;gradientColor=#b3b3b3;fillColor=#f5f5f5;strokeColor=#666666;" vertex="1" parent="1">
          <mxGeometry x="500" y="100" width="320" height="230" as="geometry" />
        </mxCell>
        <mxCell id="b1I_690l7l1dpyekks1_-1" value="" style="shape=image;html=1;verticalAlign=top;verticalLabelPosition=bottom;labelBackgroundColor=#ffffff;imageAspect=0;aspect=fixed;image=https://cdn0.iconfinder.com/data/icons/computer-and-hardware-free/32/Computer__Computer_Hardware_Extension_Cord_Plug_Socket-128.png" vertex="1" parent="1">
          <mxGeometry x="530" y="380" width="128" height="128" as="geometry" />
        </mxCell>
        <mxCell id="b1I_690l7l1dpyekks1_-2" value="Router Wi-Fi" style="image;html=1;image=img/lib/clip_art/networking/Wireless_Router_128x128.png" vertex="1" parent="1">
          <mxGeometry x="330" y="409" width="80" height="80" as="geometry" />
        </mxCell>
        <mxCell id="b1I_690l7l1dpyekks1_-4" value="" style="html=1;verticalLabelPosition=bottom;align=center;labelBackgroundColor=#ffffff;verticalAlign=top;strokeWidth=2;strokeColor=#0080F0;shadow=0;dashed=0;shape=mxgraph.ios7.icons.wifi;pointerEvents=1" vertex="1" parent="1">
          <mxGeometry x="540" y="350" width="29.7" height="21" as="geometry" />
        </mxCell>
        <mxCell id="b1I_690l7l1dpyekks1_-6" value="" style="html=1;verticalLabelPosition=bottom;align=center;labelBackgroundColor=#ffffff;verticalAlign=top;strokeWidth=2;strokeColor=#0080F0;shadow=0;dashed=0;shape=mxgraph.ios7.icons.wifi;pointerEvents=1" vertex="1" parent="1">
          <mxGeometry x="340" y="400" width="29.7" height="21" as="geometry" />
        </mxCell>
        <mxCell id="b1I_690l7l1dpyekks1_-9" value="" style="endArrow=classic;html=1;exitX=0.5;exitY=1;exitDx=0;exitDy=0;" edge="1" parent="1" source="b1I_690l7l1dpyekks1_-33">
          <mxGeometry width="50" height="50" relative="1" as="geometry">
            <mxPoint x="670" y="320" as="sourcePoint" />
            <mxPoint x="594" y="380" as="targetPoint" />
          </mxGeometry>
        </mxCell>
        <mxCell id="b1I_690l7l1dpyekks1_-10" value="" style="rounded=1;whiteSpace=wrap;html=1;fillColor=#dae8fc;strokeColor=#6c8ebf;" vertex="1" parent="1">
          <mxGeometry x="530" y="110" width="155" height="190" as="geometry" />
        </mxCell>
        <mxCell id="b1I_690l7l1dpyekks1_-8" value="&lt;span style=&quot;font-family: &amp;#34;boschsans&amp;#34; , &amp;#34;helvetica neue&amp;#34; , &amp;#34;helvetica&amp;#34; , &amp;#34;arial&amp;#34; , sans-serif ; background-color: rgb(255 , 255 , 255)&quot;&gt;&lt;font style=&quot;font-size: 12px&quot;&gt;Temperature&amp;nbsp;&lt;/font&gt;&lt;/span&gt;" style="verticalLabelPosition=bottom;html=1;fillColor=#A153A0;strokeColor=#ffffff;verticalAlign=top;align=center;points=[[0,0.5,0],[0.125,0.25,0],[0.25,0,0],[0.5,0,0],[0.75,0,0],[0.875,0.25,0],[1,0.5,0],[0.875,0.75,0],[0.75,1,0],[0.5,1,0],[0.125,0.75,0]];pointerEvents=1;shape=mxgraph.cisco_safe.compositeIcon;bgIcon=mxgraph.cisco_safe.design.blank_device;resIcon=mxgraph.cisco_safe.design.sensor;" vertex="1" parent="1">
          <mxGeometry x="555" y="120" width="50" height="45" as="geometry" />
        </mxCell>
        <mxCell id="b1I_690l7l1dpyekks1_-11" value="" style="endArrow=classic;startArrow=classic;html=1;exitX=1.013;exitY=0.613;exitDx=0;exitDy=0;dashed=1;exitPerimeter=0;" edge="1" parent="1" source="b1I_690l7l1dpyekks1_-2">
          <mxGeometry width="50" height="50" relative="1" as="geometry">
            <mxPoint x="440" y="590" as="sourcePoint" />
            <mxPoint x="528" y="456" as="targetPoint" />
          </mxGeometry>
        </mxCell>
        <mxCell id="b1I_690l7l1dpyekks1_-13" value="&lt;span style=&quot;font-family: &amp;#34;boschsans&amp;#34; , &amp;#34;helvetica neue&amp;#34; , &amp;#34;helvetica&amp;#34; , &amp;#34;arial&amp;#34; , sans-serif&quot;&gt;&lt;font style=&quot;font-size: 12px&quot;&gt;Humidity&lt;/font&gt;&lt;/span&gt;" style="shape=image;html=1;verticalAlign=top;verticalLabelPosition=bottom;labelBackgroundColor=#ffffff;imageAspect=0;aspect=fixed;image=https://cdn2.iconfinder.com/data/icons/weather-flat-icons-2/320/7-128.png" vertex="1" parent="1">
          <mxGeometry x="573.5" y="189" width="68" height="68" as="geometry" />
        </mxCell>
        <mxCell id="b1I_690l7l1dpyekks1_-16" value="" style="rounded=1;whiteSpace=wrap;html=1;fillColor=#d5e8d4;strokeColor=#82b366;" vertex="1" parent="1">
          <mxGeometry x="730" y="110" width="80" height="190" as="geometry" />
        </mxCell>
        <mxCell id="b1I_690l7l1dpyekks1_-14" value="Lux" style="shape=image;html=1;verticalAlign=top;verticalLabelPosition=bottom;labelBackgroundColor=#ffffff;imageAspect=0;aspect=fixed;image=https://cdn2.iconfinder.com/data/icons/bitsies/128/Lightbulb-128.png" vertex="1" parent="1">
          <mxGeometry x="735.5" y="140" width="69" height="69" as="geometry" />
        </mxCell>
        <mxCell id="b1I_690l7l1dpyekks1_-19" value="CO2" style="html=1;verticalLabelPosition=bottom;align=center;labelBackgroundColor=#ffffff;verticalAlign=top;strokeWidth=2;strokeColor=#0080F0;shadow=0;dashed=0;shape=mxgraph.ios7.icons.cloud;" vertex="1" parent="1">
          <mxGeometry x="632" y="132.5" width="42" height="32.5" as="geometry" />
        </mxCell>
        <mxCell id="b1I_690l7l1dpyekks1_-24" value="LED" style="shape=image;html=1;verticalAlign=top;verticalLabelPosition=bottom;labelBackgroundColor=#ffffff;imageAspect=0;aspect=fixed;image=https://cdn2.iconfinder.com/data/icons/fatcow/32x32/led.png" vertex="1" parent="1">
          <mxGeometry x="615" y="609" width="70" height="70" as="geometry" />
        </mxCell>
        <mxCell id="b1I_690l7l1dpyekks1_-25" value="Fan" style="shape=image;html=1;verticalAlign=top;verticalLabelPosition=bottom;labelBackgroundColor=#ffffff;imageAspect=0;aspect=fixed;image=https://cdn0.iconfinder.com/data/icons/computer-and-hardware-free/32/Computer__Computer_Hardware_Fan_Cooling_Cooler-128.png" vertex="1" parent="1">
          <mxGeometry x="710" y="605" width="74" height="74" as="geometry" />
        </mxCell>
        <mxCell id="b1I_690l7l1dpyekks1_-26" value="" style="endArrow=classic;html=1;entryX=0.5;entryY=0;entryDx=0;entryDy=0;exitX=0.5;exitY=1;exitDx=0;exitDy=0;" edge="1" parent="1" source="b1I_690l7l1dpyekks1_-1" target="b1I_690l7l1dpyekks1_-34">
          <mxGeometry width="50" height="50" relative="1" as="geometry">
            <mxPoint x="580" y="510" as="sourcePoint" />
            <mxPoint x="660" y="570" as="targetPoint" />
          </mxGeometry>
        </mxCell>
        <mxCell id="b1I_690l7l1dpyekks1_-30" value="&lt;br&gt;&lt;span style=&quot;color: rgba(24 , 39 , 57 , 0.94) ; font-size: 16px ; font-style: normal ; font-weight: 400 ; letter-spacing: normal ; text-align: center ; text-indent: 0px ; text-transform: none ; word-spacing: 0px ; background-color: rgb(255 , 255 , 255) ; display: inline ; float: none&quot;&gt;Neon IoT Platform&lt;/span&gt;" style="outlineConnect=0;fontColor=#232F3E;gradientColor=none;strokeColor=#ffffff;fillColor=#232F3E;dashed=0;verticalLabelPosition=middle;verticalAlign=bottom;align=center;html=1;whiteSpace=wrap;fontSize=10;fontStyle=1;spacing=3;shape=mxgraph.aws4.productIcon;prIcon=mxgraph.aws4.cloud9;" vertex="1" parent="1">
          <mxGeometry x="50" y="371" width="140" height="179" as="geometry" />
        </mxCell>
        <mxCell id="b1I_690l7l1dpyekks1_-31" value="" style="endArrow=classic;startArrow=classic;html=1;entryX=0;entryY=0.625;entryDx=0;entryDy=0;entryPerimeter=0;dashed=1;" edge="1" parent="1" source="b1I_690l7l1dpyekks1_-30" target="b1I_690l7l1dpyekks1_-2">
          <mxGeometry width="50" height="50" relative="1" as="geometry">
            <mxPoint x="50" y="730" as="sourcePoint" />
            <mxPoint x="100" y="680" as="targetPoint" />
          </mxGeometry>
        </mxCell>
        <mxCell id="b1I_690l7l1dpyekks1_-35" value="" style="rounded=0;whiteSpace=wrap;html=1;gradientColor=#ffd966;fillColor=#fff2cc;strokeColor=#d6b656;" vertex="1" parent="1">
          <mxGeometry x="45" y="580" width="465" height="300" as="geometry" />
        </mxCell>
        <mxCell id="b1I_690l7l1dpyekks1_-36" value="" style="aspect=fixed;html=1;points=[];align=center;image;fontSize=12;image=img/lib/mscae/Managed_Desktop.svg;" vertex="1" parent="1">
          <mxGeometry x="50" y="587.4" width="336.94" height="242.6" as="geometry" />
        </mxCell>
        <mxCell id="b1I_690l7l1dpyekks1_-38" value="User" style="html=1;verticalLabelPosition=bottom;align=center;labelBackgroundColor=#ffffff;verticalAlign=top;strokeWidth=2;strokeColor=#0080F0;shadow=0;dashed=0;shape=mxgraph.ios7.icons.user;" vertex="1" parent="1">
          <mxGeometry x="238.75" y="950" width="77.5" height="60" as="geometry" />
        </mxCell>
        <mxCell id="b1I_690l7l1dpyekks1_-39" value="" style="endArrow=classic;startArrow=classic;html=1;dashed=1;entryX=0.5;entryY=1;entryDx=0;entryDy=0;" edge="1" parent="1" source="b1I_690l7l1dpyekks1_-38" target="b1I_690l7l1dpyekks1_-35">
          <mxGeometry width="50" height="50" relative="1" as="geometry">
            <mxPoint x="360" y="790" as="sourcePoint" />
            <mxPoint x="280" y="890" as="targetPoint" />
          </mxGeometry>
        </mxCell>
        <mxCell id="b1I_690l7l1dpyekks1_-40" value="" style="endArrow=classic;startArrow=classic;html=1;dashed=1;entryX=0.32;entryY=0.003;entryDx=0;entryDy=0;entryPerimeter=0;" edge="1" parent="1" source="b1I_690l7l1dpyekks1_-30" target="b1I_690l7l1dpyekks1_-35">
          <mxGeometry width="50" height="50" relative="1" as="geometry">
            <mxPoint x="190" y="560" as="sourcePoint" />
            <mxPoint x="240" y="510" as="targetPoint" />
          </mxGeometry>
        </mxCell>
        <mxCell id="b1I_690l7l1dpyekks1_-47" value="" style="strokeWidth=1;shadow=0;dashed=0;align=center;html=1;shape=mxgraph.mockup.containers.browserWindow;rSize=0;strokeColor=#666666;strokeColor2=#008cff;strokeColor3=#c4c4c4;mainText=,;recursiveResize=0;fontColor=#FF6417;" vertex="1" parent="1">
          <mxGeometry x="93.47" y="605" width="236.53" height="155" as="geometry" />
        </mxCell>
        <mxCell id="b1I_690l7l1dpyekks1_-48" value="Page 1" style="strokeWidth=1;shadow=0;dashed=0;align=center;html=1;shape=mxgraph.mockup.containers.anchor;fontSize=17;fontColor=#666666;align=left;" vertex="1" parent="b1I_690l7l1dpyekks1_-47">
          <mxGeometry x="60" y="12" width="110" height="26" as="geometry" />
        </mxCell>
        <mxCell id="b1I_690l7l1dpyekks1_-49" value="&lt;font color=&quot;#ff4719&quot; style=&quot;font-size: 9px&quot;&gt;https://neonplatform.com/&lt;/font&gt;" style="strokeWidth=1;shadow=0;dashed=0;align=center;html=1;shape=mxgraph.mockup.containers.anchor;rSize=0;fontSize=17;fontColor=#666666;align=left;" vertex="1" parent="b1I_690l7l1dpyekks1_-47">
          <mxGeometry x="130" y="65" width="110" height="16" as="geometry" />
        </mxCell>
        <mxCell id="b1I_690l7l1dpyekks1_-52" value="" style="shape=image;html=1;verticalAlign=top;verticalLabelPosition=bottom;labelBackgroundColor=#ffffff;imageAspect=0;aspect=fixed;image=https://cdn4.iconfinder.com/data/icons/logos-and-brands/512/335_Telegram_logo-128.png;fontColor=#FF6417;" vertex="1" parent="1">
          <mxGeometry x="414" y="670" width="58" height="58" as="geometry" />
        </mxCell>
        <mxCell id="b1I_690l7l1dpyekks1_-53" value="" style="verticalLabelPosition=bottom;verticalAlign=top;html=1;shadow=0;dashed=0;strokeWidth=1;shape=mxgraph.android.phone2;strokeColor=#c0c0c0;fontColor=#FF6417;" vertex="1" parent="1">
          <mxGeometry x="400" y="605" width="93" height="190" as="geometry" />
        </mxCell>
        <mxCell id="b1I_690l7l1dpyekks1_-54" value="&lt;font color=&quot;#000000&quot;&gt;Internet&lt;/font&gt;" style="text;html=1;align=center;verticalAlign=middle;resizable=0;points=[];autosize=1;strokeColor=none;fontColor=#FF6417;" vertex="1" parent="1">
          <mxGeometry x="220" y="450" width="60" height="20" as="geometry" />
        </mxCell>
      </root>
    </mxGraphModel>
  </diagram>
</mxfile>
